# xmcd
#
# Track frame offsets: 
#        150
#        14334
#        30964
#        46702
#        61717
#        73472
#        90980
#        111241
#        131515
#        147865
#        160400
#        178908
#        192530
#        214408
#        235127
#        249904
#        266419
#        287310
#
# Disc length: 4115 seconds
#
# Revision: 1
# Processed by: cddbd v1.5.2PL0 Copyright (c) Steve Scherf et al.
# Submitted via: ExactAudioCopy v1.3
#
DISCID=fb101112
DTITLE=Various Artist - Blues Revue sampler Dec-Jan 2008
DYEAR=2008
DGENRE=Blues
TTITLE0=Duke Robillard - Jump the blues for you
TTITLE1=The Mare Edstrom Blues Band - Breakfast in bed
TTITLE2=Delta Moon - Cool your jets
TTITLE3=Paul Yates - Trouble in mind
TTITLE4=Little Pigeon's ForHill Blues - T-train kick
TTITLE5=Candye Kane - I'm lucky
TTITLE6=Kelly Bell Band - Reincarnated
TTITLE7=Matt Walsh - Why my baby ain't around
TTITLE8=Charlie Wood and The New Memphis Underground - Don't let the mon
TTITLE8=ey get funny, honey
TTITLE9=David "Honeyboy" Edwards with Bobby Rush - Apron strings
TTITLE10=Dawn Tyler Watson and Paul Deslauriers - Boozin'
TTITLE11=Matt Wigler - Track ten
TTITLE12=J. Hill and Hartling - One of these days
TTITLE13=Jony James Blues Band - It's your move
TTITLE14=Julie Black - Love this mama
TTITLE15=Cathy Jean - For more years
TTITLE16=Tyrone Vaughan - Protect you
TTITLE17=Laurie Morvan Band - One little thing
EXTD=
EXTT0=
EXTT1=
EXTT2=
EXTT3=
EXTT4=
EXTT5=
EXTT6=
EXTT7=
EXTT8=
EXTT9=
EXTT10=
EXTT11=
EXTT12=
EXTT13=
EXTT14=
EXTT15=
EXTT16=
EXTT17=
PLAYORDER=
